<?xml version="1.0" encoding="UTF-8" standalone="no"?>
<svg
   xmlns:dc="http://purl.org/dc/elements/1.1/"
   xmlns:cc="http://creativecommons.org/ns#"
   xmlns:rdf="http://www.w3.org/1999/02/22-rdf-syntax-ns#"
   xmlns:svg="http://www.w3.org/2000/svg"
   xmlns="http://www.w3.org/2000/svg"
   xmlns:sodipodi="http://sodipodi.sourceforge.net/DTD/sodipodi-0.dtd"
   xmlns:inkscape="http://www.inkscape.org/namespaces/inkscape"
   width="28.514212mm"
   height="16.18224mm"
   viewBox="0 0 28.514212 16.18224"
   version="1.1"
   id="svg1191"
   inkscape:version="1.0.1 (3bc2e813f5, 2020-09-07)"
   sodipodi:docname="nonbranching.svg">
  <defs
     id="defs1185" />
  <sodipodi:namedview
     id="base"
     pagecolor="#ffffff"
     bordercolor="#666666"
     borderopacity="1.0"
     inkscape:pageopacity="0.0"
     inkscape:pageshadow="2"
     inkscape:zoom="0.35"
     inkscape:cx="-43.257732"
     inkscape:cy="-37.990804"
     inkscape:document-units="mm"
     inkscape:current-layer="layer1"
     inkscape:document-rotation="0"
     showgrid="false"
     fit-margin-top="0"
     fit-margin-left="0"
     fit-margin-right="0"
     fit-margin-bottom="0"
     inkscape:window-width="1920"
     inkscape:window-height="986"
     inkscape:window-x="-11"
     inkscape:window-y="-11"
     inkscape:window-maximized="1" />
  <metadata
     id="metadata1188">
    <rdf:RDF>
      <cc:Work
         rdf:about="">
        <dc:format>image/svg+xml</dc:format>
        <dc:type
           rdf:resource="http://purl.org/dc/dcmitype/StillImage" />
        <dc:title></dc:title>
      </cc:Work>
    </rdf:RDF>
  </metadata>
  <g
     inkscape:label="Layer 1"
     inkscape:groupmode="layer"
     id="layer1"
     transform="translate(-117.27861,-158.2184)">
    <path
       d="m 145.61184,174.40064 c 0.0632,-0.0151 0.12312,-0.0285 0.18098,-0.0391 -0.0579,0.0109 -0.11783,0.024 -0.18098,0.0391"
       style="fill:#4a1645;fill-opacity:1;fill-rule:nonzero;stroke:none;stroke-width:0.0352777"
       id="path56" />
    <path
       d="m 145.26894,168.03893 c 0.006,-0.0136 0.0127,-0.0278 0.0194,-0.0416 -0.007,0.0138 -0.013,0.0275 -0.0194,0.0416"
       style="fill:#4a1645;fill-opacity:1;fill-rule:nonzero;stroke:none;stroke-width:0.0352777"
       id="path60" />
    <path
       d="m 143.01328,164.18843 c -0.31679,-2.38125 -2.27612,-3.89784 -4.39349,-4.68665 -2.1971,-0.81915 -4.62633,-1.01282 -6.95431,-0.97543 -3.20887,0.0519 -6.39974,0.74824 -9.22267,2.30611 -2.84833,1.57092 -6.65367,5.52086 -4.01179,8.86855 0.92851,1.17612 2.45569,1.72459 3.84775,2.21781 l 0.0469,0.0135 0.0159,0.008 c 0.13759,0.049 0.27376,0.0974 0.40746,0.14538 0.25012,0.0907 0.56868,0.199 0.91334,0.32949 0.0635,0.0154 0.12665,0.0303 0.1898,0.0459 0.50588,0.12263 1.00753,0.25425 1.51976,0.34809 0.0762,0.0138 0.15276,0.0258 0.22931,0.0391 0.5588,0.0424 1.1183,0.0674 1.66687,0.10943 1.7773,0.13518 3.56518,0.0893 5.33542,-0.11494 1.77306,-0.20436 3.60115,-0.4699 5.28778,-1.07279 0.61031,-0.21816 1.26824,-0.46401 1.83021,-0.82064 0.19156,-0.23537 0.38559,-0.46852 0.58561,-0.69673 0.29563,-0.45254 0.61913,-0.88304 0.94898,-1.31025 0.27834,-0.33059 0.55139,-0.65758 0.77928,-0.98736 0.11501,-0.167 0.21837,-0.33679 0.31574,-0.5093 0.11853,-0.18951 0.22154,-0.38795 0.28892,-0.59203 0.35313,-0.83221 0.49848,-1.7235 0.37324,-2.66566"
       style="fill:#901962;fill-opacity:1;fill-rule:nonzero;stroke:none;stroke-width:0.0352777"
       id="path488" />
    <path
       d="m 142.54585,163.41126 c -0.98531,-2.73226 -4.00085,-3.85445 -6.63892,-4.29648 -2.58093,-0.43215 -5.32483,-0.45437 -7.90011,0.0208 -3.42582,0.63182 -7.28874,2.13889 -9.27629,5.18195 -0.96061,1.4701 -1.42169,3.41203 -0.31044,4.947 0.79586,1.09887 2.04505,1.69679 3.28012,2.16892 1.03964,0.39754 2.11914,0.73476 3.10586,1.25733 0.18768,0.0426 0.37606,0.0839 0.56585,0.11878 0.0755,0.0135 0.15135,0.0255 0.22684,0.0388 0.55951,0.0423 1.12042,0.0677 1.66934,0.10971 1.7773,0.13519 3.56518,0.0893 5.33542,-0.11493 1.77306,-0.20436 3.60115,-0.4699 5.28778,-1.0728 0.58385,-0.20891 1.21215,-0.44139 1.75754,-0.77378 0.12876,-0.31888 0.30762,-0.62438 0.51541,-0.92273 l 0.0413,-0.0816 c 0.0346,-0.078 0.0748,-0.15515 0.11853,-0.23107 0.0716,-0.098 0.13759,-0.18411 0.19156,-0.25646 0.0434,-0.0579 0.0857,-0.11674 0.12912,-0.17502 l 0.01,-0.007 c 0.31044,-0.40072 0.66392,-0.77995 0.99201,-1.17231 0.98107,-1.41302 1.53881,-2.96581 0.89958,-4.73915"
       style="fill:#ec2a98;fill-opacity:1;fill-rule:nonzero;stroke:none;stroke-width:0.0352777"
       id="path490" />
    <path
       d="m 129.72697,172.47829 c -0.60396,0 -1.20404,-0.0127 -1.79564,-0.0299 -1.6189,-0.0479 -3.24556,-0.13088 -4.82741,-0.5013 l -0.0325,-0.008 c 0.39829,0.14855 0.79375,0.30413 1.17969,0.47985 -0.82903,-0.37724 -1.70321,-0.66126 -2.55094,-0.98535 -0.97049,-0.37113 -1.95015,-0.81993 -2.71109,-1.52824 0.75953,-0.0766 1.31268,-0.73064 1.6644,-1.34828 0.64523,-1.13372 1.15817,-3.38434 0.22578,-4.64315 -0.006,-0.007 -0.0109,-0.0148 -0.0166,-0.0221 0.16333,0.14287 0.30797,0.33087 0.42651,0.56705 0.35383,0.70485 0.32455,1.52933 0.2032,2.29623 -0.27305,0.85768 -0.86995,1.64208 -0.74154,2.57126 0.007,0.05 0.0215,0.0956 0.0335,0.14252 0.2025,1.31131 1.61043,1.75645 3.21804,1.75645 1.85138,0 3.96734,-0.59119 4.80836,-1.13055 0.6985,-0.44842 1.2185,-1.16184 1.49366,-1.93961 0.10196,-0.28801 0.0384,-1.30859 -0.42968,-1.30859 -0.007,0 -0.0152,2.9e-4 -0.0229,8.5e-4 -0.31221,0.0213 -0.5528,0.21773 -0.78881,0.40816 -0.51964,0.41963 -1.05375,0.80574 -1.63548,1.13619 -0.67733,0.38421 -1.77659,0.77929 -2.74849,0.77929 -0.44627,0 -0.86572,-0.0832 -1.20509,-0.28925 -0.78599,-0.4772 -0.83644,-1.37061 -0.78458,-2.24564 0.0568,-0.95871 0.67733,-1.61438 1.00471,-2.47537 0.0236,-0.0619 -0.019,-0.14058 -0.0825,-0.15737 -0.11888,-0.0317 -0.23742,-0.0433 -0.3556,-0.0433 -0.16792,0 -0.33514,0.0234 -0.50235,0.0469 -0.16722,0.0234 -0.33444,0.0468 -0.50165,0.0468 -0.12912,0 -0.25859,-0.014 -0.38806,-0.0529 -0.59514,-0.17776 -0.93557,-0.70813 -1.07421,-1.2821 -0.0423,-0.17709 -0.0589,-0.36406 -0.0642,-0.55315 0.1725,-0.13688 0.34925,-0.26917 0.53057,-0.39653 -0.0501,0.133 -0.0889,0.26882 -0.1143,0.40711 0.005,0.39687 0.19897,0.75882 0.49636,1.05234 0.33902,0.3333 0.77682,0.45141 1.22449,0.45141 0.36195,0 0.73096,-0.0773 1.05904,-0.18066 1.24425,-0.3914 3.15172,-1.69068 3.32529,-3.2482 0.0423,-0.38135 -0.0409,-0.68262 -0.21202,-0.91405 0.32667,-0.0751 0.65122,-0.14217 0.9719,-0.20143 0.10654,-0.0194 0.21272,-0.0381 0.31962,-0.0561 -0.0889,0.073 -0.17251,0.15169 -0.24942,0.23636 -0.20426,0.34113 -0.22966,0.75036 -0.13123,1.1564 0.2039,0.83538 1.05375,1.24178 1.79952,1.43122 0.38311,0.0977 0.86219,0.15628 1.37019,0.15664 1.16875,0 2.49308,-0.31045 3.16724,-1.16946 0.47801,-0.61066 0.34748,-1.21285 -0.0825,-1.71486 -0.13053,-0.11923 -0.27341,-0.22613 -0.42616,-0.32067 0.71861,0.055 1.43193,0.14217 2.13289,0.25964 0.0656,0.0109 0.13124,0.0226 0.19756,0.0342 -0.14252,0.16052 -0.25259,0.3556 -0.33055,0.57115 -0.29351,0.80857 0.18803,1.61855 0.70379,2.18969 0.73307,0.81316 2.24508,1.78523 3.59198,1.78523 0.25647,0 0.5073,-0.0353 0.74542,-0.11366 0.7366,-0.24282 0.96167,-0.81573 0.8823,-1.47225 -0.0254,-0.10301 -0.0572,-0.20426 -0.0945,-0.30445 0.39687,0.45967 0.71931,0.98919 0.94051,1.5995 -0.0473,-0.13053 -0.10302,-0.25365 -0.15946,-0.37747 -0.0406,0.20179 -0.11818,0.38417 -0.25365,0.52835 -0.19614,0.20878 -0.43638,0.22793 -0.69356,0.22793 -0.0289,0 -0.0579,-2.9e-4 -0.0868,-5.5e-4 -0.0293,-1.4e-4 -0.0582,-4.3e-4 -0.0875,-4.3e-4 -0.10336,0 -0.20849,0.003 -0.31327,0.019 -0.77611,0.12005 -1.37018,0.46856 -1.78823,1.14903 -0.80115,1.30087 -0.94368,2.77647 -0.71437,4.25415 0.0624,0.40319 0.133,0.86635 -0.14958,1.20646 -0.31679,0.38213 -0.76482,0.64449 -1.21391,0.84212 -2.2867,1.00721 -4.8521,1.22548 -7.35612,1.22548 m 2.679,-5.23393 c -0.51153,0 -0.10654,0.85217 0.005,1.02249 0.4191,0.64135 0.95003,1.19243 1.56492,1.64786 0.54328,0.40213 1.20368,0.64026 1.81434,0.64026 0.82091,0 1.55187,-0.42997 1.78788,-1.46819 0.11006,-0.48659 0.12453,-1.2748 -0.5013,-1.36726 -0.0268,-0.004 -0.0547,-0.006 -0.084,-0.006 -0.3489,0 -0.86043,0.26387 -1.17616,0.32836 -0.20708,0.0424 -0.41311,0.0622 -0.61701,0.0622 -0.51082,0 -1.01106,-0.12305 -1.49084,-0.31849 -0.41487,-0.20778 -0.80222,-0.49512 -1.25166,-0.53893 -0.0183,-0.002 -0.0353,-0.002 -0.0515,-0.002 m -5.086,-3.94847 c -0.89076,0 -1.81504,0.3726 -2.53294,0.86042 -0.77682,0.52779 -1.65559,1.41386 -1.89371,2.51587 -0.0183,0.46387 0.15346,0.91034 0.43462,1.29275 0.39476,0.53549 0.96061,0.70732 1.51871,0.70732 0.25929,0 0.51682,-0.037 0.75494,-0.0922 1.27141,-0.2927 3.26425,-1.5591 3.53307,-3.35343 0.13265,-0.88801 -0.26917,-1.46128 -0.889,-1.77839 -0.29704,-0.10544 -0.60925,-0.15236 -0.92569,-0.15236 m 6.34295,-0.32597 c -0.64312,0 -1.31622,0.12347 -1.89124,0.4639 -0.35349,0.30191 -0.5648,0.73032 -0.65335,1.19694 -0.18344,0.95663 0.45544,1.65393 1.09255,2.08661 0.66675,0.45396 1.79494,0.85743 2.91289,0.85743 0.68968,0 1.37583,-0.15339 1.94769,-0.54321 0.74189,-0.50549 0.8897,-1.19038 0.70167,-1.85995 -0.47484,-1.10628 -1.72402,-1.79215 -2.86949,-2.05743 -0.37218,-0.0861 -0.7994,-0.14429 -1.24072,-0.14429 m -6.11752,-1.95827 c -0.0279,0 -0.055,0.01 -0.0765,0.0339 -0.21484,0.24059 -0.36971,0.52105 -0.51153,0.80962 -0.2219,0.26952 -0.45014,0.54787 -0.33867,0.90735 0.0752,0.24235 0.32244,0.30056 0.59443,0.30056 0.1263,0 0.25788,-0.0127 0.37995,-0.0254 0.1217,-0.0123 0.23424,-0.025 0.32279,-0.025 0.0155,0 0.03,3.5e-4 0.0441,0.001 0.0487,0.003 0.1651,0.0106 0.30515,0.0106 0.37077,0 0.90417,-0.0533 0.75636,-0.38241 -0.26706,-0.59831 -0.88089,-1.1811 -1.37407,-1.59033 -0.0279,-0.0233 -0.0656,-0.0402 -0.10196,-0.0402 m 7.29368,-0.60183 c -0.0526,0 -0.10724,0.0346 -0.13088,0.0878 -0.1845,0.41028 -0.40428,0.78881 -0.67239,1.14582 -0.23954,0.18309 -0.4893,0.35595 -0.66781,0.60713 -0.0441,0.0617 -0.01,0.17216 0.0688,0.18768 0.53305,0.10689 1.13065,0.28928 1.70251,0.28928 0.248,0 0.49142,-0.0346 0.72248,-0.12418 0.049,-0.0194 0.0787,-0.0921 0.0631,-0.1397 -0.23072,-0.71084 -0.6537,-1.32538 -0.98531,-1.98861 -0.0229,-0.0459 -0.061,-0.0653 -0.10054,-0.0653"
       style="fill:#e01c74;fill-opacity:1;fill-rule:nonzero;stroke:none;stroke-width:0.0352777"
       id="path492" />
    <path
       d="m 125.37192,172.80958 v 0 c -0.19014,-0.0349 -0.37853,-0.0762 -0.56656,-0.11878 -0.18203,-0.0963 -0.36689,-0.18672 -0.55421,-0.27203 0.18732,0.0853 0.37289,0.17569 0.55492,0.27203 0.18768,0.0426 0.37606,0.0839 0.56585,0.11878 m 17.17393,-9.39832 c -7.1e-4,-0.002 -0.001,-0.005 -0.002,-0.007 0.001,0.002 0.002,0.005 0.002,0.007"
       style="fill:#88104a;fill-opacity:1;fill-rule:nonzero;stroke:none;stroke-width:0.0352777"
       id="path494" />
    <path
       d="m 129.30998,173.03501 c -0.68121,0 -1.36243,-0.0251 -2.04188,-0.0769 -0.54892,-0.042 -1.10983,-0.0674 -1.66934,-0.10972 -0.0755,-0.0134 -0.15134,-0.0253 -0.22684,-0.0388 -0.18979,-0.0349 -0.37817,-0.0762 -0.56585,-0.11878 -0.18203,-0.0963 -0.3676,-0.18672 -0.55492,-0.27203 -0.38594,-0.17572 -0.7814,-0.33129 -1.17969,-0.47984 l 0.0325,0.008 c 1.58185,0.37041 3.20851,0.45335 4.82741,0.50129 0.5916,0.0173 1.19168,0.0299 1.79564,0.0299 2.50401,0 5.06941,-0.21826 7.35612,-1.22548 0.44908,-0.19762 0.89711,-0.45998 1.21391,-0.84211 0.28257,-0.34012 0.21202,-0.80328 0.14957,-1.20647 -0.2293,-1.47768 -0.0868,-2.95328 0.71438,-4.25414 0.41804,-0.68048 1.01212,-1.02899 1.78823,-1.14904 0.10477,-0.0161 0.2099,-0.019 0.31327,-0.019 0.0293,0 0.0582,2.9e-4 0.0875,4.2e-4 0.0289,2.9e-4 0.0579,5.6e-4 0.0868,5.6e-4 0.25717,0 0.49741,-0.0192 0.69356,-0.22793 0.13546,-0.14418 0.21307,-0.32657 0.25364,-0.52836 0.0564,0.12383 0.11219,0.24695 0.15946,0.37747 0.001,0.002 0.002,0.005 0.002,0.007 v 0 c 0.15593,0.43223 0.24059,0.85157 0.26529,1.25893 -0.25577,-0.20285 -0.5655,-0.33804 -0.895,-0.4112 -0.13053,-0.0291 -0.25647,-0.0424 -0.37818,-0.0424 -0.76482,0 -1.35114,0.53329 -1.74166,1.07114 -0.76553,1.05625 -1.43686,3.31995 -0.46038,4.84932 0.14147,0.22186 0.29987,0.39327 0.47026,0.52034 -0.0582,0.11148 -0.11113,0.22462 -0.15734,0.33927 -0.5454,0.33239 -1.17369,0.56487 -1.75754,0.77378 -1.68663,0.6029 -3.51473,0.86844 -5.28779,1.0728 -1.09325,0.12622 -2.19322,0.1918 -3.29353,0.1918"
       style="fill:#d3165b;fill-opacity:1;fill-rule:nonzero;stroke:none;stroke-width:0.0352777"
       id="path496" />
    <path
       d="m 126.27539,158.83574 c -1.14371,-0.21626 -2.45957,0.31679 -3.38914,0.98883 -0.74083,0.53552 -1.56633,1.38712 -1.74448,2.35162 0.005,0.39687 0.19896,0.75882 0.49635,1.05234 0.61348,0.60286 1.5494,0.50172 2.28353,0.27075 1.24425,-0.3914 3.15172,-1.69069 3.32529,-3.2482 0.0857,-0.77152 -0.3422,-1.21461 -0.97155,-1.41534"
       style="fill:#9f1254;fill-opacity:1;fill-rule:nonzero;stroke:none;stroke-width:0.0352777"
       id="path498" />
    <path
       d="m 125.83018,162.21429 c -0.59161,0.52282 -1.28834,0.91652 -2.01965,1.14723 -0.61313,0.19357 -1.26471,0.19121 -1.83374,-0.13264 -0.70097,-0.39864 -0.86078,-1.1811 -0.46037,-1.88877 0.54927,-0.9712 1.73637,-1.76213 2.71074,-2.14242 l 0.005,-0.005 c 0.42863,-0.16228 0.8703,-0.27164 1.35326,-0.26811 0.71825,0.006 1.53528,0.35701 1.53528,1.24742 3.5e-4,0.8255 -0.74824,1.56351 -1.29081,2.04223"
       style="fill:#f24f97;fill-opacity:1;fill-rule:nonzero;stroke:none;stroke-width:0.0352777"
       id="path500" />
    <path
       d="m 124.95388,159.64748 c -0.16439,-0.0282 -0.33514,-0.0275 -0.50588,-0.009 -0.14499,0.0296 -0.28963,0.0769 -0.4311,0.13617 0.17851,-0.0505 0.36372,-0.0815 0.56127,-0.0808 0.17957,7.1e-4 0.36936,0.0406 0.52423,0.12347 -0.63817,-0.2039 -1.58044,0.39935 -1.97238,0.77506 -0.29316,0.28187 -0.75036,0.8195 -0.54822,1.24954 -0.34184,-0.20744 -0.41874,-0.58103 -0.21343,-0.92287 0.0219,-0.0363 0.049,-0.0702 0.0744,-0.10513 -0.13264,0.15946 -0.2286,0.34325 -0.2727,0.54222 0.01,0.19509 0.1136,0.37253 0.27341,0.51647 0.33725,0.30374 0.84807,0.25153 1.24707,0.1337 0.67733,-0.19932 1.71238,-0.85866 1.79987,-1.64571 0.043,-0.38911 -0.19191,-0.61242 -0.53658,-0.71296"
       style="fill:#9f1254;fill-opacity:1;fill-rule:nonzero;stroke:none;stroke-width:0.0352777"
       id="path502" />
    <path
       d="m 124.72634,161.35351 c -0.32067,0.266 -0.6992,0.46532 -1.09643,0.58244 -0.25012,0.0744 -0.51118,0.0871 -0.75777,0.0233 -0.0452,-0.006 -0.0875,-0.0173 -0.12559,-0.0406 l -0.0466,-0.0145 0.007,-0.0176 c -0.0268,-0.0236 -0.0508,-0.0519 -0.0691,-0.0907 -0.0691,-0.14675 -0.0363,-0.31115 0.0381,-0.46143 0.15522,-0.40922 0.66746,-0.7994 0.94509,-0.9772 0.49072,-0.31573 1.15711,-0.49741 1.72756,-0.31009 0.0441,0.0769 0.0709,0.16687 0.0723,0.27376 0.004,0.41663 -0.40181,0.79057 -0.69497,1.03258"
       style="fill:#7a7bb9;fill-opacity:1;fill-rule:nonzero;stroke:none;stroke-width:0.0352777"
       id="path504" />
    <path
       d="m 119.20396,163.53826 c -0.98531,0.62012 -1.58609,1.90585 -1.81011,3.031 -0.17857,0.89613 -0.20327,2.08248 0.32174,2.91042 0.27516,0.28758 0.66287,0.42015 1.0802,0.43215 0.85972,0.0255 1.47708,-0.68612 1.85773,-1.35488 0.64523,-1.13372 1.15817,-3.38434 0.22578,-4.64315 -0.46249,-0.62319 -1.07703,-0.65705 -1.67534,-0.37554"
       style="fill:#9f1254;fill-opacity:1;fill-rule:nonzero;stroke:none;stroke-width:0.0352777"
       id="path506" />
    <path
       d="m 121.1774,166.31709 c -0.078,0.78518 -0.32033,1.5482 -0.69991,2.21368 -0.3168,0.5599 -0.79622,1.00154 -1.43334,1.15175 -0.78423,0.18426 -1.43404,-0.27933 -1.62243,-1.0699 -0.25841,-1.08589 0.0734,-2.47357 0.52811,-3.41545 l 3.5e-4,-0.007 c 0.20356,-0.41106 0.45227,-0.79101 0.80892,-1.11733 0.53023,-0.48478 1.36808,-0.78373 1.9738,-0.13116 0.56197,0.60452 0.51611,1.65531 0.4445,2.37533"
       style="fill:#f24f97;fill-opacity:1;fill-rule:nonzero;stroke:none;stroke-width:0.0352777"
       id="path508" />
    <path
       d="m 118.78839,165.03249 c -0.1397,0.0909 -0.26459,0.2074 -0.37748,0.33761 -0.0857,0.12015 -0.1591,0.25287 -0.22295,0.39303 0.0967,-0.15808 0.21061,-0.30759 0.3563,-0.44126 0.13229,-0.12128 0.29845,-0.22186 0.46814,-0.2661 -0.60607,0.28427 -0.88547,1.36811 -0.91687,1.91036 -0.0236,0.40626 0.008,1.1103 0.44838,1.28807 -0.39194,0.0812 -0.70238,-0.14044 -0.78422,-0.53125 -0.009,-0.0409 -0.0127,-0.0843 -0.0176,-0.12704 0.0109,0.20712 0.0663,0.40707 0.16933,0.58276 0.1397,0.13656 0.33655,0.19512 0.5521,0.19198 0.45367,-0.006 0.79198,-0.39233 1.00436,-0.75064 0.36018,-0.6066 0.66992,-1.79377 0.19896,-2.42976 -0.23318,-0.31528 -0.55774,-0.31873 -0.87841,-0.15776"
       style="fill:#9f1254;fill-opacity:1;fill-rule:nonzero;stroke:none;stroke-width:0.0352777"
       id="path510" />
    <path
       d="m 119.78287,166.43834 c -0.0543,0.41163 -0.1958,0.81552 -0.40676,1.17246 -0.13335,0.22419 -0.31573,0.41134 -0.5401,0.53192 -0.0367,0.0265 -0.0759,0.0473 -0.11889,0.0561 l -0.0444,0.0212 -0.007,-0.0181 c -0.0353,0 -0.0723,-0.003 -0.11112,-0.0197 -0.15134,-0.0604 -0.23953,-0.20327 -0.28645,-0.36353 -0.16545,-0.40584 -0.0547,-1.03999 0.0272,-1.35901 0.14499,-0.56543 0.50941,-1.15207 1.05481,-1.40356 0.0847,0.0266 0.16616,0.074 0.23953,0.15159 0.28611,0.30275 0.24342,0.85259 0.19333,1.23059"
       style="fill:#7a7bb9;fill-opacity:1;fill-rule:nonzero;stroke:none;stroke-width:0.0352777"
       id="path512" />
    <path
       d="m 134.20019,159.17581 c -0.85902,-0.78563 -2.25849,-1.02376 -3.40184,-0.94227 -0.91193,0.066 -2.06234,0.35631 -2.72133,1.08233 -0.20425,0.34113 -0.22965,0.75035 -0.13123,1.1564 0.20391,0.83538 1.05375,1.24178 1.79952,1.43122 1.264,0.32244 3.57011,0.21978 4.53743,-1.01282 0.47801,-0.61066 0.34748,-1.21285 -0.0825,-1.71486"
       style="fill:#9f1254;fill-opacity:1;fill-rule:nonzero;stroke:none;stroke-width:0.0352777"
       id="path514" />
    <path
       d="m 132.04366,161.81494 c -0.77753,0.13335 -1.57692,0.10196 -2.31987,-0.0868 -0.62371,-0.15804 -1.17687,-0.50235 -1.49013,-1.07774 -0.38629,-0.70731 -0.11078,-1.45661 0.60184,-1.84855 0.9779,-0.53622 2.40382,-0.58455 3.43252,-0.39582 l 0.007,-10e-4 c 0.45015,0.0875 0.88301,0.22684 1.29188,0.48401 0.60783,0.38241 1.11901,1.11055 0.64981,1.86831 -0.43356,0.70238 -1.45909,0.93557 -2.17276,1.05798"
       style="fill:#f24f97;fill-opacity:1;fill-rule:nonzero;stroke:none;stroke-width:0.0352777"
       id="path516" />
    <path
       d="m 132.64938,159.17087 c -0.12524,-0.11041 -0.27023,-0.19896 -0.42581,-0.2734 -0.13829,-0.0515 -0.28575,-0.0875 -0.43815,-0.11112 0.17921,0.0504 0.35208,0.12171 0.52035,0.22613 0.1524,0.0952 0.29245,0.22895 0.37994,0.3817 -0.43462,-0.51011 -1.55363,-0.49212 -2.08456,-0.37817 -0.39758,0.0847 -1.06857,0.30127 -1.12395,0.77364 -0.18098,-0.35631 -0.0501,-0.71438 0.30515,-0.89712 0.0367,-0.019 0.078,-0.0335 0.11783,-0.0512 -0.19685,0.0667 -0.375,0.17251 -0.51753,0.31856 -0.0938,0.1711 -0.0981,0.37641 -0.0385,0.58279 0.127,0.43533 0.58844,0.65969 0.99025,0.76941 0.68051,0.18732 1.90818,0.17039 2.39572,-0.45262 0.24165,-0.30833 0.1591,-0.62124 -0.0808,-0.88865"
       style="fill:#9f1254;fill-opacity:1;fill-rule:nonzero;stroke:none;stroke-width:0.0352777"
       id="path518" />
    <path
       d="m 131.55788,160.50261 c -0.41169,0.0572 -0.8389,0.0279 -1.23895,-0.0818 -0.25153,-0.0681 -0.48013,-0.19474 -0.65617,-0.37889 -0.0346,-0.0282 -0.0656,-0.061 -0.0854,-0.0995 l -0.0321,-0.0384 0.0155,-0.0102 c -0.0102,-0.0346 -0.0152,-0.0709 -0.0109,-0.11289 0.0183,-0.16157 0.133,-0.28469 0.27481,-0.37218 0.34784,-0.26706 0.98884,-0.32985 1.31798,-0.33479 0.58314,-0.0102 1.24566,0.18556 1.63266,0.64453 -0.004,0.0892 -0.0275,0.17991 -0.0829,0.27128 -0.2159,0.35666 -0.75706,0.46144 -1.13454,0.51294"
       style="fill:#7a7bb9;fill-opacity:1;fill-rule:nonzero;stroke:none;stroke-width:0.0352777"
       id="path520" />
    <path
       d="m 141.69742,162.10916 c -0.2794,-1.1303 -1.31198,-2.10467 -2.30928,-2.67017 -0.79516,-0.45156 -1.91347,-0.84667 -2.86456,-0.60819 -0.35877,0.17039 -0.60713,0.49671 -0.74965,0.88935 -0.29351,0.80857 0.18803,1.61854 0.70379,2.18969 0.87277,0.96802 2.84974,2.16172 4.3374,1.67157 0.7366,-0.24282 0.96168,-0.81573 0.8823,-1.47225"
       style="fill:#9f1254;fill-opacity:1;fill-rule:nonzero;stroke:none;stroke-width:0.0352777"
       id="path522" />
    <path
       d="m 138.43952,163.10999 c -0.72073,-0.32032 -1.36878,-0.78987 -1.88278,-1.35855 -0.43144,-0.4773 -0.70061,-1.07138 -0.64276,-1.72332 0.0709,-0.80256 0.71579,-1.27388 1.52541,-1.20438 1.11161,0.0956 2.32516,0.84596 3.07658,1.57374 l 0.006,0.002 c 0.32596,0.32315 0.6096,0.6791 0.80715,1.11901 0.29316,0.65547 0.31503,1.54447 -0.4953,1.91559 -0.75035,0.34378 -1.73284,-0.03 -2.39465,-0.32385"
       style="fill:#f24f97;fill-opacity:1;fill-rule:nonzero;stroke:none;stroke-width:0.0352777"
       id="path524" />
    <path
       d="m 140.40872,161.24521 c -0.042,-0.16122 -0.11359,-0.31609 -0.20179,-0.4639 -0.0871,-0.11924 -0.19014,-0.23107 -0.30303,-0.3355 0.12065,0.14182 0.22578,0.29669 0.30727,0.47661 0.0737,0.16404 0.11641,0.35277 0.10513,0.52846 -0.0797,-0.66534 -1.02024,-1.27106 -1.52577,-1.47038 -0.37782,-0.15028 -1.05657,-0.34184 -1.36348,0.0208 0.0459,-0.39687 0.35383,-0.62265 0.75035,-0.5782 0.0416,0.005 0.084,0.0159 0.12595,0.0236 -0.20003,-0.0547 -0.4064,-0.0642 -0.60608,-0.0215 -0.17321,0.09 -0.29104,0.25788 -0.35595,0.4632 -0.13547,0.43285 0.12418,0.87559 0.39793,1.18921 0.4625,0.5334 1.49331,1.19944 2.24473,0.95215 0.37218,-0.12312 0.47731,-0.42969 0.42474,-0.78458"
       style="fill:#9f1254;fill-opacity:1;fill-rule:nonzero;stroke:none;stroke-width:0.0352777"
       id="path526" />
    <path
       d="m 138.76302,161.74792 c -0.37465,-0.18027 -0.71403,-0.44168 -0.98637,-0.75495 -0.1711,-0.19614 -0.29175,-0.42792 -0.33585,-0.67874 -0.013,-0.0434 -0.0208,-0.0871 -0.0155,-0.13053 l -0.006,-0.049 0.0191,-7e-4 c 0.0109,-0.0342 0.0265,-0.0674 0.054,-0.10019 0.10478,-0.12418 0.26776,-0.16298 0.43498,-0.15734 0.43709,-0.0293 1.00435,0.27446 1.28234,0.45261 0.49036,0.31503 0.9331,0.84491 1.00083,1.44145 -0.0519,0.0727 -0.12241,0.13441 -0.21907,0.17992 -0.37747,0.17639 -0.88583,-0.0356 -1.22837,-0.20249"
       style="fill:#7a7bb9;fill-opacity:1;fill-rule:nonzero;stroke:none;stroke-width:0.0352777"
       id="path528" />
    <path
       d="m 128.24565,163.44827 c -1.13383,-0.40248 -2.48602,0.0468 -3.45863,0.70806 -0.77682,0.52779 -1.65559,1.41386 -1.89371,2.51587 -0.0183,0.46387 0.15346,0.91034 0.43462,1.29275 0.5782,0.78451 1.52329,0.78836 2.27365,0.61514 1.27141,-0.2927 3.26425,-1.5591 3.53307,-3.35343 0.13265,-0.88801 -0.26917,-1.46128 -0.889,-1.77839"
       style="fill:#9f1254;fill-opacity:1;fill-rule:nonzero;stroke:none;stroke-width:0.0352777"
       id="path530" />
    <path
       d="m 127.59337,167.33271 c -0.62442,0.53149 -1.34762,0.89958 -2.09374,1.07142 -0.6283,0.14605 -1.28164,0.0575 -1.83268,-0.39483 -0.67875,-0.55714 -0.79128,-1.49102 -0.34749,-2.26409 0.61066,-1.06042 1.84997,-1.82799 2.85009,-2.14355 l 0.005,-0.006 c 0.43992,-0.13258 0.88971,-0.20253 1.37372,-0.13438 0.71967,0.1009 1.51836,0.61641 1.46438,1.65668 -0.0501,0.96298 -0.84596,1.72572 -1.41957,2.21425"
       style="fill:#f24f97;fill-opacity:1;fill-rule:nonzero;stroke:none;stroke-width:0.0352777"
       id="path532" />
    <path
       d="m 126.87088,164.22219 c -0.16299,-0.0553 -0.33373,-0.0769 -0.5073,-0.0773 -0.1464,0.0149 -0.29421,0.0512 -0.44062,0.10198 0.18274,-0.0354 0.36971,-0.0474 0.56833,-0.0212 0.17991,0.0253 0.3683,0.0956 0.51823,0.21428 -0.62724,-0.32262 -1.60902,0.25795 -2.0253,0.64519 -0.31185,0.29006 -0.80186,0.85754 -0.62583,1.38533 -0.33055,-0.28663 -0.38452,-0.7324 -0.15804,-1.10462 0.0236,-0.0395 0.0536,-0.0758 0.0804,-0.11299 -0.14252,0.16809 -0.24941,0.37069 -0.30621,0.59735 -0.002,0.22892 0.0917,0.44856 0.24307,0.63846 0.31961,0.39825 0.83502,0.40404 1.24318,0.31859 0.69145,-0.14315 1.76954,-0.77706 1.905,-1.68285 0.067,-0.44923 -0.15522,-0.74112 -0.49494,-0.90219"
       style="fill:#9f1254;fill-opacity:1;fill-rule:nonzero;stroke:none;stroke-width:0.0352777"
       id="path534" />
    <path
       d="m 126.53821,166.18343 c -0.33726,0.26705 -0.72884,0.45018 -1.13489,0.53509 -0.25506,0.0536 -0.51717,0.034 -0.76129,-0.0728 -0.0445,-0.0127 -0.0868,-0.0317 -0.12312,-0.063 l -0.0459,-0.0243 0.008,-0.0191 c -0.0251,-0.0314 -0.0476,-0.0675 -0.0639,-0.11452 -0.06,-0.18104 -0.0173,-0.36861 0.067,-0.53382 0.18027,-0.45752 0.7172,-0.84448 1.00718,-1.01674 0.51082,-0.3029 1.19027,-0.42676 1.75083,-0.13462 0.0399,0.096 0.0621,0.20517 0.0568,0.32893 -0.0219,0.48754 -0.4512,0.86981 -0.76129,1.11485"
       style="fill:#7a7bb9;fill-opacity:1;fill-rule:nonzero;stroke:none;stroke-width:0.0352777"
       id="path536" />
    <path
       d="m 137.77312,165.17166 c -0.47484,-1.10628 -1.72402,-1.79215 -2.86949,-2.05743 -0.9144,-0.21167 -2.16218,-0.25436 -3.13196,0.31961 -0.35349,0.30191 -0.5648,0.73032 -0.65335,1.19694 -0.18344,0.95663 0.45544,1.65393 1.09255,2.08661 1.07845,0.73381 3.36092,1.33601 4.86058,0.31422 0.74189,-0.50549 0.8897,-1.19038 0.70167,-1.85995"
       style="fill:#9f1254;fill-opacity:1;fill-rule:nonzero;stroke:none;stroke-width:0.0352777"
       id="path538" />
    <path
       d="m 134.47923,167.33158 c -0.81421,-0.0974 -1.5755,-0.37783 -2.20944,-0.80889 -0.5334,-0.36131 -0.91229,-0.90057 -0.95497,-1.613 -0.0515,-0.8763 0.55703,-1.59368 1.42593,-1.79335 1.19344,-0.27128 2.59785,0.11642 3.50943,0.63581 l 0.007,-2.9e-4 c 0.39652,0.23262 0.75283,0.5158 1.03187,0.91666 0.41487,0.59711 0.57856,1.53391 -0.22083,2.20087 -0.74084,0.61737 -1.84115,0.55122 -2.58939,0.46218"
       style="fill:#f24f97;fill-opacity:1;fill-rule:nonzero;stroke:none;stroke-width:0.0352777"
       id="path540" />
    <path
       d="m 136.27099,164.68867 c -0.0702,-0.15712 -0.17039,-0.29739 -0.28751,-0.42513 -0.11077,-0.0976 -0.23742,-0.18136 -0.3743,-0.25329 0.15029,0.10929 0.2861,0.23883 0.40076,0.40209 0.10442,0.14912 0.18027,0.33542 0.19508,0.52575 -0.18909,-0.67952 -1.28234,-1.0057 -1.84855,-1.048 -0.4251,-0.0317 -1.17405,-0.006 -1.44251,0.48147 -0.0141,-0.43684 0.27693,-0.77981 0.70379,-0.86596 0.0448,-0.009 0.0921,-0.0121 0.13758,-0.0179 -0.22119,0.0103 -0.44238,0.0689 -0.64628,0.18105 -0.16934,0.15381 -0.26706,0.37207 -0.30339,0.61228 -0.0755,0.50546 0.27022,0.88702 0.6103,1.1286 0.57503,0.40997 1.77236,0.77075 2.52907,0.25496 0.375,-0.25633 0.43779,-0.61736 0.32596,-0.97593"
       style="fill:#9f1254;fill-opacity:1;fill-rule:nonzero;stroke:none;stroke-width:0.0352777"
       id="path542" />
    <path
       d="m 134.60588,165.7766 c -0.4251,-0.0661 -0.8255,-0.22888 -1.16381,-0.46961 -0.21237,-0.15064 -0.37677,-0.35624 -0.4639,-0.6084 -0.0208,-0.0409 -0.0356,-0.085 -0.037,-0.13258 l -0.0134,-0.05 0.0194,-0.007 c 0.006,-0.0404 0.0176,-0.0806 0.0409,-0.12471 0.0917,-0.16718 0.25858,-0.26349 0.43673,-0.31309 0.45826,-0.17889 1.10737,-0.0476 1.43052,0.0482 0.57009,0.16909 1.12254,0.58276 1.2887,1.19366 -0.0437,0.0941 -0.10866,0.18422 -0.2032,0.2643 -0.37219,0.31542 -0.94439,0.26046 -1.33492,0.19911"
       style="fill:#7a7bb9;fill-opacity:1;fill-rule:nonzero;stroke:none;stroke-width:0.0352777"
       id="path544" />
    <path
       d="m 141.1739,170.89506 c 1.11972,-0.44193 1.84326,-1.66868 2.14277,-2.80639 0.23954,-0.90755 0.31997,-2.15332 -0.22437,-3.14025 -0.29104,-0.36216 -0.71367,-0.58677 -1.17616,-0.68943 -0.95179,-0.21181 -1.66722,0.40555 -2.11984,1.0287 -0.76553,1.05625 -1.43686,3.31995 -0.46037,4.84932 0.4826,0.75709 1.1631,0.92562 1.83797,0.75805"
       style="fill:#9f1254;fill-opacity:1;fill-rule:nonzero;stroke:none;stroke-width:0.0352777"
       id="path546" />
    <path
       d="m 139.11438,167.53707 c 0.12171,-0.81139 0.42475,-1.56355 0.87489,-2.18419 0.37747,-0.52229 0.92816,-0.88416 1.64183,-0.90484 0.87736,-0.026 1.5755,0.60428 1.74872,1.47906 0.23601,1.20025 -0.19438,2.59306 -0.74119,3.48809 v 0.008 c -0.24483,0.38915 -0.53798,0.73695 -0.94756,1.00291 -0.60925,0.39688 -1.55116,0.53234 -2.19287,-0.28702 -0.59513,-0.75847 -0.496,-1.85678 -0.38382,-2.60174"
       style="fill:#f24f97;fill-opacity:1;fill-rule:nonzero;stroke:none;stroke-width:0.0352777"
       id="path548" />
    <path
       d="m 141.70236,169.40845 c 0.1584,-0.0656 0.30198,-0.16125 0.43286,-0.27506 0.10089,-0.10763 0.18838,-0.23248 0.26529,-0.36657 -0.1143,0.14675 -0.24765,0.27866 -0.41487,0.38901 -0.15205,0.0992 -0.34043,0.16908 -0.53128,0.17889 0.68509,-0.16895 1.04422,-1.25127 1.10419,-1.81695 0.0437,-0.42347 0.0413,-1.1727 -0.4385,-1.45605 0.4378,-5.3e-4 0.77152,0.30085 0.8449,0.7294 0.007,0.0452 0.009,0.0926 0.0134,0.1385 -0.004,-0.22091 -0.055,-0.4433 -0.16228,-0.65183 -0.14817,-0.1736 -0.36301,-0.27767 -0.60184,-0.32106 -0.50271,-0.0909 -0.89535,0.24296 -1.14723,0.57559 -0.42686,0.5624 -0.82374,1.74791 -0.3302,2.52018 0.24377,0.3828 0.60289,0.45586 0.96555,0.35595"
       style="fill:#9f1254;fill-opacity:1;fill-rule:nonzero;stroke:none;stroke-width:0.0352777"
       id="path550" />
    <path
       d="m 140.66413,167.71071 c 0.0794,-0.42281 0.254,-0.81831 0.50554,-1.14932 0.15663,-0.20778 0.36724,-0.36516 0.62159,-0.44439 0.0416,-0.0197 0.0857,-0.0338 0.1337,-0.0338 l 0.0508,-0.0121 0.006,0.0203 c 0.0399,0.007 0.0797,0.0193 0.12277,0.0441 0.16475,0.0971 0.25506,0.2668 0.30092,0.44594 0.16404,0.4637 0.0127,1.10917 -0.0928,1.42833 -0.18591,0.56402 -0.6163,1.10451 -1.23155,1.25194 -0.0931,-0.0466 -0.18097,-0.11381 -0.25823,-0.21054 -0.30339,-0.38174 -0.23178,-0.9525 -0.1591,-1.34041"
       style="fill:#7a7bb9;fill-opacity:1;fill-rule:nonzero;stroke:none;stroke-width:0.0352777"
       id="path552" />
    <path
       d="m 118.6314,169.5231 c -0.2473,0 -0.49601,-0.10156 -0.69286,-0.30938 -0.42157,-0.44553 -0.59478,-1.09044 -0.41522,-1.68191 0.006,-0.0185 0.0441,-0.0558 0.0642,-0.0558 0.009,0 0.0141,0.007 0.0116,0.0259 -0.0603,0.46327 0.17251,1.01614 0.52282,1.32733 0.23142,0.20627 0.44168,0.28991 0.66922,0.28991 0.17427,0 0.35877,-0.0493 0.57079,-0.13049 0.0102,-0.004 0.0187,-0.006 0.0258,-0.006 0.066,0 0.008,0.15173 -0.0131,0.17748 -0.19896,0.23946 -0.47025,0.36254 -0.7433,0.36254"
       style="fill:#f78dcc;fill-opacity:1;fill-rule:nonzero;stroke:none;stroke-width:0.0352777"
       id="path554" />
    <path
       d="m 124.06947,167.22892 c -0.38135,0 -0.70979,-0.19844 -0.72637,-0.6937 -0.0187,-0.56498 0.30057,-1.21695 0.79939,-1.50111 0.007,-0.004 0.0134,-0.006 0.0183,-0.006 0.0268,0 0.0113,0.0613 -0.004,0.0781 -0.2854,0.33542 -0.58526,0.80645 -0.49072,1.27289 0.1016,0.50204 0.57468,0.54709 1.00718,0.57577 0.0702,0.004 -0.004,0.12774 -0.036,0.14291 -0.18203,0.0836 -0.38135,0.13116 -0.56832,0.13116"
       style="fill:#f78dcc;fill-opacity:1;fill-rule:nonzero;stroke:none;stroke-width:0.0352777"
       id="path556" />
    <path
       d="m 122.11014,162.83447 c -0.43815,0 -0.64911,-0.43779 -0.59655,-0.88512 0.0579,-0.48154 0.34537,-0.93415 0.67769,-1.27529 0.0127,-0.013 0.024,-0.0187 0.0335,-0.0187 0.0226,0 0.0318,0.0317 0.0106,0.0635 -0.20426,0.3048 -0.38559,0.69392 -0.41522,1.06398 -0.0395,0.49213 0.25752,0.58985 0.57502,0.8703 0.0487,0.0427 -0.0166,0.13371 -0.0639,0.14782 -0.0794,0.0229 -0.1531,0.0335 -0.22119,0.0335"
       style="fill:#f78dcc;fill-opacity:1;fill-rule:nonzero;stroke:none;stroke-width:0.0352777"
       id="path558" />
    <path
       d="m 128.70426,160.68041 c -0.008,0 -0.0176,-0.003 -0.0265,-0.009 -0.40922,-0.27905 -0.53728,-0.79622 -0.28187,-1.23119 0.24236,-0.41487 0.66464,-0.64559 1.12184,-0.75354 0.002,-7e-4 0.005,-0.001 0.007,-0.001 0.0296,0 -0.001,0.0621 -0.0176,0.0716 -0.31292,0.17215 -0.75918,0.39652 -0.89429,0.7553 -0.13018,0.34254 0.054,0.68932 0.17956,1.00435 0.0166,0.0438 -0.0307,0.16334 -0.0882,0.16334"
       style="fill:#f78dcc;fill-opacity:1;fill-rule:nonzero;stroke:none;stroke-width:0.0352777"
       id="path560" />
    <path
       d="m 132.03907,165.62325 c -0.009,0 -0.0183,-0.003 -0.0275,-0.008 -1.04599,-0.65729 -7.1e-4,-2.20581 0.90523,-2.36562 0.003,-7.2e-4 0.006,-7.2e-4 0.008,-7.2e-4 0.0406,0 0.003,0.0716 -0.0123,0.0854 -0.28328,0.2649 -0.66428,0.50369 -0.85619,0.84945 -0.24518,0.44002 -0.0169,0.83178 0.0952,1.26848 0.0134,0.0495 -0.0487,0.17131 -0.11254,0.17131"
       style="fill:#f78dcc;fill-opacity:1;fill-rule:nonzero;stroke:none;stroke-width:0.0352777"
       id="path562" />
    <path
       d="m 136.59237,161.15172 c -0.0102,0 -0.0208,-0.005 -0.031,-0.0162 -0.28645,-0.3355 -0.54081,-0.93204 -0.39899,-1.37725 0.10654,-0.33443 0.38912,-0.7306 0.77576,-0.7306 0.0191,0 0.0381,7e-4 0.0575,0.003 l -0.009,0.0593 c -0.15802,0.14605 -0.41766,0.27904 -0.49386,0.49247 -0.0603,0.16687 -0.0356,0.34043 -0.004,0.51047 0.0579,0.30868 0.16016,0.61419 0.19226,0.92569 0.004,0.037 -0.0416,0.13335 -0.0882,0.13335"
       style="fill:#f78dcc;fill-opacity:1;fill-rule:nonzero;stroke:none;stroke-width:0.0352777"
       id="path564" />
    <path
       d="m 136.83932,161.60822 c -3.5e-4,0 -7.2e-4,0 -10e-4,0 -0.12488,-0.003 -0.12136,-0.15523 -0.10654,-0.24906 0.003,-0.0155 0.0437,-0.0737 0.0702,-0.0737 0.007,0 0.013,0.004 0.0173,0.0138 0.0303,0.0737 0.10266,0.0833 0.12559,0.16334 0.0162,0.0564 -0.0462,0.1457 -0.10548,0.1457"
       style="fill:#f78dcc;fill-opacity:1;fill-rule:nonzero;stroke:none;stroke-width:0.0352777"
       id="path566" />
    <path
       d="m 139.37579,167.99635 c -0.0173,0 -0.0303,-0.0131 -0.0349,-0.047 -0.16263,-1.19708 0.81245,-3.14565 2.13924,-3.24485 0.001,-1.4e-4 0.002,-1.4e-4 0.004,-1.4e-4 0.0526,0 -0.0109,0.10777 -0.0335,0.11935 -0.617,0.32589 -1.12783,0.75102 -1.42134,1.40144 -0.23777,0.52712 -0.32949,1.07929 -0.50447,1.62472 -0.0106,0.0315 -0.0977,0.14647 -0.14852,0.14647"
       style="fill:#f78dcc;fill-opacity:1;fill-rule:nonzero;stroke:none;stroke-width:0.0352777"
       id="path568" />
    <path
       d="m 139.29465,168.70755 c -0.0205,0 -0.0346,-0.0156 -0.0321,-0.0576 0.005,-0.0828 0.0353,-0.15808 0.0296,-0.24267 -0.001,-0.0283 0.0557,-0.11399 0.0931,-0.11399 0.009,0 0.0173,0.005 0.0229,0.0181 0.0448,0.10115 0.0497,0.19858 0.007,0.30124 -0.0148,0.0353 -0.0804,0.0949 -0.121,0.0949"
       style="fill:#f78dcc;fill-opacity:1;fill-rule:nonzero;stroke:none;stroke-width:0.0352777"
       id="path570" />
    <path
       d="m 119.32814,166.43214 c 0.15698,-0.2067 0.29139,-0.43297 0.23036,-0.69935 -0.0141,-0.0623 -0.0773,-0.043 -0.1143,-0.014 -0.0896,0.0705 -0.16651,0.16354 -0.23671,0.26373 -0.004,-0.13395 -0.0212,-0.26511 -0.0794,-0.39825 -0.0452,-0.10128 -0.18239,0.0684 -0.19791,0.10749 -0.0861,0.21566 -0.0889,0.44182 -0.0635,0.66739 -0.16933,-0.0361 -0.34149,0.0145 -0.48577,0.144 -0.0289,0.0265 -0.10654,0.13808 -0.0434,0.17047 0.13299,0.067 0.26105,0.0752 0.4004,0.0762 -0.14111,0.25054 -0.23742,0.55121 -0.14217,0.82408 0.0226,0.0636 0.0914,0.0331 0.12312,-0.009 0.0769,-0.10057 0.12911,-0.20821 0.17462,-0.31898 0.018,0.13021 0.0663,0.25217 0.17639,0.34999 0.0508,0.0448 0.133,-0.0652 0.1457,-0.10057 0.06,-0.17364 0.0536,-0.33486 0.0452,-0.50176 0.30622,0.12333 0.52317,-0.55591 0.0674,-0.56183"
       style="fill:#6142a3;fill-opacity:1;fill-rule:nonzero;stroke:none;stroke-width:0.0352777"
       id="path572" />
    <path
       d="m 124.36898,161.07305 c 0.2547,-0.0508 0.50517,-0.13017 0.63676,-0.36971 0.0307,-0.0561 -0.0296,-0.0836 -0.0762,-0.0871 -0.1143,-0.006 -0.23389,0.0123 -0.35242,0.0413 0.0861,-0.10301 0.16051,-0.21308 0.20496,-0.35066 0.0339,-0.10619 -0.18133,-0.0709 -0.21872,-0.0511 -0.20814,0.10336 -0.36054,0.27093 -0.49107,0.45649 -0.1023,-0.1397 -0.26494,-0.2159 -0.45861,-0.21484 -0.0392,3.5e-4 -0.1711,0.0321 -0.14534,0.0984 0.055,0.13829 0.14428,0.22966 0.24835,0.32315 -0.27199,0.0931 -0.54328,0.25365 -0.65299,0.52105 -0.0258,0.0624 0.0455,0.0857 0.097,0.0755 0.12453,-0.0243 0.23531,-0.0699 0.34326,-0.12242 -0.0741,0.10936 -0.11889,0.23283 -0.10125,0.37924 0.008,0.0663 0.14252,0.0399 0.17533,0.0212 0.16157,-0.0899 0.26317,-0.21484 0.36689,-0.34536 0.14746,0.29598 0.76129,-0.0677 0.42404,-0.37501"
       style="fill:#6142a3;fill-opacity:1;fill-rule:nonzero;stroke:none;stroke-width:0.0352777"
       id="path574" />
    <path
       d="m 126.22917,165.69352 c 0.25471,-0.0507 0.50518,-0.13024 0.63606,-0.36974 0.0314,-0.0558 -0.0286,-0.0839 -0.0755,-0.0867 -0.1143,-0.007 -0.23389,0.0124 -0.35243,0.0407 0.0854,-0.10308 0.16016,-0.2129 0.20497,-0.35087 0.0339,-0.10541 -0.18098,-0.0703 -0.21873,-0.051 -0.20778,0.10403 -0.36053,0.27093 -0.49141,0.45656 -0.10196,-0.13949 -0.26459,-0.21597 -0.45862,-0.21459 -0.0391,0 -0.17109,0.0317 -0.14499,0.0985 0.055,0.13836 0.14394,0.22944 0.24801,0.32275 -0.272,0.093 -0.54293,0.25425 -0.653,0.52092 -0.0258,0.0631 0.0462,0.0865 0.0974,0.0767 0.12418,-0.0244 0.2353,-0.0708 0.3429,-0.12333 -0.0737,0.10972 -0.11818,0.23263 -0.10054,0.37896 0.008,0.067 0.14146,0.0397 0.17498,0.0211 0.16122,-0.0896 0.26282,-0.2147 0.36689,-0.34452 0.14675,0.29535 0.76129,-0.0686 0.42403,-0.3755"
       style="fill:#6142a3;fill-opacity:1;fill-rule:nonzero;stroke:none;stroke-width:0.0352777"
       id="path576" />
    <path
       d="m 131.36809,160.15477 c 0.23071,0.11854 0.47695,0.21167 0.72813,0.10619 0.0589,-0.0243 0.0296,-0.0836 -0.005,-0.11501 -0.0854,-0.0758 -0.1905,-0.13652 -0.30092,-0.18768 0.13159,-0.0272 0.25788,-0.0667 0.37818,-0.1471 0.0931,-0.0614 -0.0977,-0.16757 -0.13935,-0.17604 -0.22754,-0.0473 -0.4505,-0.0116 -0.66922,0.0522 0.007,-0.17357 -0.072,-0.33373 -0.22472,-0.45367 -0.0307,-0.0243 -0.15416,-0.0819 -0.17462,-0.0134 -0.0437,0.14253 -0.0296,0.26953 -0.007,0.40746 -0.27058,-0.0967 -0.58314,-0.13935 -0.83538,0.002 -0.0586,0.0325 -0.0169,0.0956 0.0293,0.11959 0.11254,0.0582 0.22754,0.0914 0.34466,0.11713 -0.12559,0.0399 -0.23706,0.1083 -0.31432,0.23424 -0.0356,0.0568 0.0861,0.11889 0.12347,0.12524 0.18239,0.03 0.33937,-0.005 0.50236,-0.0416 -0.0688,0.32279 0.63782,0.42051 0.56515,-0.0296"
       style="fill:#6142a3;fill-opacity:1;fill-rule:nonzero;stroke:none;stroke-width:0.0352777"
       id="path578" />
    <path
       d="m 138.97257,161.36762 c 0.11888,0.23037 0.26423,0.44909 0.53022,0.50977 0.0624,0.0145 0.0734,-0.0508 0.0635,-0.0963 -0.0254,-0.11183 -0.0762,-0.22155 -0.13617,-0.32809 0.12276,0.0543 0.24835,0.0963 0.3937,0.10055 0.11077,0.004 0.018,-0.19368 -0.0116,-0.22402 -0.15664,-0.17145 -0.35913,-0.27199 -0.57397,-0.34748 0.10689,-0.13653 0.13582,-0.31362 0.0811,-0.49918 -0.0109,-0.0377 -0.0776,-0.15664 -0.13477,-0.11289 -0.11782,0.091 -0.18097,0.20179 -0.24235,0.32773 -0.16405,-0.23636 -0.39335,-0.45297 -0.68051,-0.48543 -0.0667,-0.008 -0.0699,0.0677 -0.0462,0.11395 0.0579,0.11324 0.13229,0.20708 0.21202,0.29669 -0.12524,-0.0413 -0.25612,-0.0497 -0.39194,0.007 -0.0621,0.0261 0.001,0.14746 0.0282,0.17462 0.13018,0.13018 0.27799,0.19368 0.43215,0.25824 -0.24412,0.22225 0.27447,0.71296 0.47661,0.30515"
       style="fill:#6142a3;fill-opacity:1;fill-rule:nonzero;stroke:none;stroke-width:0.0352777"
       id="path580" />
    <path
       d="m 134.6394,165.13293 c 0.16862,0.19748 0.36018,0.37704 0.63358,0.37567 0.0635,0 0.0589,-0.0666 0.0388,-0.10929 -0.0501,-0.10224 -0.12453,-0.19802 -0.20743,-0.28843 0.13194,0.0256 0.26388,0.0369 0.40605,0.009 0.10901,-0.0216 -0.0268,-0.19294 -0.0621,-0.21636 -0.19227,-0.13007 -0.41205,-0.18246 -0.63783,-0.20655 0.072,-0.15681 0.0596,-0.33571 -0.036,-0.50479 -0.019,-0.0335 -0.11148,-0.13434 -0.15734,-0.0788 -0.0935,0.11532 -0.12947,0.2384 -0.16087,0.3744 -0.21307,-0.1918 -0.48648,-0.35027 -0.77364,-0.31626 -0.067,0.007 -0.0522,0.082 -0.0183,0.12195 0.0822,0.0965 0.17569,0.17089 0.27376,0.2395 -0.13088,-0.011 -0.26,0.0106 -0.37959,0.0972 -0.0543,0.0393 0.0342,0.14248 0.0674,0.16263 0.15663,0.0971 0.31468,0.12566 0.47978,0.15321 -0.18662,0.2715 0.43003,0.63048 0.53375,0.18701"
       style="fill:#6142a3;fill-opacity:1;fill-rule:nonzero;stroke:none;stroke-width:0.0352777"
       id="path582" />
    <path
       d="m 141.30619,167.59962 c -0.18415,0.18302 -0.34819,0.38791 -0.32561,0.66022 0.005,0.0635 0.0702,0.054 0.11042,0.0303 0.0988,-0.0572 0.18873,-0.13931 0.27163,-0.22888 -0.0145,0.13409 -0.0162,0.26596 0.0233,0.40527 0.0303,0.10721 0.18945,-0.0409 0.21061,-0.0787 0.11571,-0.20105 0.15029,-0.42429 0.15628,-0.6514 0.16228,0.0597 0.34043,0.0338 0.5013,-0.0744 0.0321,-0.0217 0.12488,-0.12157 0.066,-0.16264 -0.12171,-0.0852 -0.24659,-0.11119 -0.38558,-0.13229 0.17568,-0.22694 0.31291,-0.51167 0.25646,-0.7954 -0.0127,-0.0661 -0.0857,-0.0455 -0.12276,-0.009 -0.0903,0.0896 -0.15699,0.18834 -0.21802,0.29128 0.001,-0.13116 -0.0303,-0.25837 -0.12559,-0.37094 -0.0434,-0.051 -0.14005,0.0452 -0.15769,0.0792 -0.0847,0.1644 -0.10019,0.3241 -0.11536,0.49058 -0.28575,-0.1651 -0.59619,0.47681 -0.14534,0.54666"
       style="fill:#6142a3;fill-opacity:1;fill-rule:nonzero;stroke:none;stroke-width:0.0352777"
       id="path584" />
  </g>
</svg>
